<svg width="504" height="502" viewBox="0 0 504 502" fill="none" xmlns="http://www.w3.org/2000/svg">
<path d="M338 41.1851C440 13.8583 547 -35.092 478 59.8582C380 175.858 364 201.858 504 201.858" stroke="#D18B21" stroke-width="8"/>
<g clip-path="url(#clip0_252_47)">
<path d="M368.342 116.785C370.298 113.388 371.892 109.798 373.111 106.074C382.895 76.1281 366.494 43.8032 336.551 34.0148C326.958 30.8829 316.784 30.3439 306.982 32.4303C299.54 25.1837 290.423 19.6681 280.519 16.4293C258.621 9.27569 234.435 13.7389 216.505 28.0461C210.06 22.8279 202.772 18.8735 194.789 16.2644C167.115 7.21719 136.38 17.3865 117.869 41.575C100.92 39.7303 84.2108 46.3101 73.1981 59.07C44.6463 63.6075 23.5154 88.1236 23.5154 117.412C23.5154 126.868 25.8062 136.066 30.3507 144.839C14.6029 155.006 4.73099 173.54 4.73099 193.797C4.73099 209.226 10.6347 223.826 21.35 234.911C31.7308 245.65 45.5362 251.965 60.3522 252.782C68.4863 262.476 80.1449 268 92.5889 268C93.495 268 94.5753 267.984 95.7533 267.898C97.2565 269.734 98.8689 271.451 100.56 273.068C125.815 326.96 131.145 420.25 131.145 489.308C131.145 496.308 136.837 501.998 143.835 501.998H216.556C223.559 501.998 229.258 496.308 229.258 489.308C229.258 387.375 276.611 305.511 301.036 270.087C309.061 273.988 317.125 275.958 325.097 275.958C357.677 275.958 384.187 249.453 384.187 216.87C384.187 209.875 382.972 203.037 380.576 196.513C382.258 193.27 383.694 189.84 384.865 186.29C392.909 161.672 386.408 134.939 368.342 116.785ZM369.966 181.411C368.948 184.504 367.665 187.473 366.144 190.256C363.509 194.531 364.215 198.239 365.396 200.716C367.461 205.865 368.509 211.301 368.509 216.873C368.509 240.808 349.037 260.278 325.104 260.278C317.971 260.278 310.511 257.91 302.904 253.24C299.052 250.71 290.776 244.414 288.676 242.097C285.765 238.889 280.804 238.649 277.6 241.558C274.392 244.467 274.153 249.428 277.061 252.634C279.327 255.129 283.799 258.723 287.77 261.7C274.963 280.293 258.237 307.918 243.879 342.564C224.182 390.091 213.998 438.44 213.589 486.322H146.83C146.688 423.756 142.079 342.613 122.688 286.206C128.522 288.086 134.711 289.083 141.091 289.083C142.471 289.083 143.849 289.034 145.218 288.939C146.472 292.005 147.901 295.291 149.383 298.694C153.872 309.005 158.96 320.697 161.214 330.838C161.997 334.467 165.224 337.062 168.902 337.062C169.03 337.062 169.155 337.06 169.283 337.053C175.154 336.767 176.546 331.389 177.069 329.363C177.387 328.134 177.798 326.41 178.295 324.24C179.29 319.886 180.512 314.203 181.739 308.234C182.793 303.106 184.903 292.616 186.406 283.737C190.814 284.771 195.342 285.305 199.903 285.305C201.252 285.305 202.598 285.247 203.938 285.156V339.374C203.938 342.964 206.375 346.096 209.858 346.974C210.497 347.136 211.143 347.215 211.78 347.215C214.609 347.215 217.286 345.677 218.678 343.101C233.463 315.727 258.005 270.844 261.304 266.232C262.657 264.615 263.119 261.853 263.119 260.168C263.119 256.07 259.608 252.327 255.278 252.327C251.811 252.327 248.314 251.902 244.908 251.07C243.561 250.736 242.336 250.38 241.133 249.971C238.217 248.995 234.037 249.421 231.259 252.583C230.61 253.326 229.976 254.06 229.358 254.781C224.031 260.954 220.511 265.038 213.938 267.28C209.419 268.837 204.693 269.627 199.903 269.627C194.222 269.627 188.613 268.493 183.39 266.339C183.156 266.228 182.916 266.128 182.67 266.04C180.986 265.31 179.338 264.478 177.749 263.535C177.719 263.519 177.684 263.498 177.654 263.482C174.448 261.63 170.707 261.883 167.908 264.125C163.389 267.724 158.201 270.338 152.485 271.894C148.819 272.898 144.988 273.405 141.094 273.405C130.225 273.405 120.109 269.543 112.372 262.629C112.251 262.515 112.128 262.404 112.001 262.299C110.235 260.684 108.595 258.907 107.105 256.976L107.04 256.893C105.579 254.997 102.533 251.04 95.658 252.146C94.6869 252.304 93.5112 252.325 92.5982 252.325C84.492 252.325 76.8783 248.519 71.746 241.932C69.2902 238.731 66.4557 237.307 62.2644 237.174C38.8007 236.431 20.4206 217.377 20.4206 193.799C20.4206 177.187 29.2308 162.267 42.927 155.754C46.3099 154.107 47.525 151.419 47.9455 149.964C48.7471 147.197 48.2173 144.282 46.361 141.275C41.6143 133.652 39.205 125.627 39.205 117.414C39.205 95.0704 55.9402 76.5091 78.1306 74.2392C80.3029 74.0138 82.2824 72.8986 83.5951 71.1561C91.4039 60.7892 104.324 55.4804 117.286 57.3065C122.37 58.0314 126.533 56.2401 129.677 51.9767C144.068 32.4605 168.275 24.0987 189.921 31.1734C197.166 33.5409 203.662 37.3419 209.24 42.4835C212.535 45.5085 218.438 47.2115 224.2 42.063C238.182 29.6446 257.891 25.5346 275.646 31.336C283.808 34.0009 290.976 38.4548 296.952 44.5699C296.996 44.614 297.033 44.6535 297.077 44.6953C299.575 47.1418 303.164 49.7254 308.796 48.1037C316.335 46.2125 324.247 46.4936 331.686 48.9192C353.407 56.0217 365.303 79.4737 358.205 101.199C356.976 104.956 355.219 108.52 353.026 111.713C349.931 116.106 350.403 121.571 354.171 124.998C354.218 125.044 354.267 125.084 354.315 125.125C370.43 139.084 376.571 161.179 369.966 181.411ZM160.852 285.691C164.39 284.441 167.766 282.865 170.963 280.986C169.987 286.776 168.649 293.811 167.285 300.614C166.105 297.823 164.915 295.089 163.76 292.438C162.747 290.11 161.762 287.844 160.852 285.691ZM219.619 281.892C229.277 278.432 234.776 272.482 240.313 266.077C240.589 266.149 242.281 266.53 242.841 266.651C237.139 276.541 228.587 292.029 219.619 308.471V281.892V281.892Z" fill="black"/>
<path d="M303.267 128.731C297.01 127.57 290.634 127.83 284.591 129.435C280.711 106.16 262.515 86.92 238.561 82.4755C209.31 77.0458 180.437 95.2958 172.812 124.01C171.699 128.197 174.192 132.488 178.379 133.603C182.563 134.714 186.859 132.223 187.972 128.037C193.509 107.196 214.486 93.9575 235.706 97.8933C255.975 101.652 270.561 119.993 269.641 140.555C269.51 143.447 270.988 146.175 273.476 147.65C275.967 149.126 279.069 149.109 281.543 147.606C287.203 144.17 293.896 142.939 300.411 144.149C315.006 146.856 324.679 160.935 321.972 175.533C321.379 178.73 320.236 181.75 318.577 184.506C316.345 188.216 317.541 193.035 321.252 195.268C322.518 196.03 323.912 196.392 325.29 196.392C327.95 196.392 330.54 195.038 332.016 192.591C334.648 188.219 336.458 183.442 337.392 178.393C339.467 167.204 337.06 155.875 330.617 146.496C324.172 137.114 314.46 130.806 303.267 128.731Z" fill="black"/>
<path d="M170.94 166.268C159.669 155.908 145.062 150.555 129.744 151.201C114.449 151.842 100.321 158.405 89.9611 169.676C80.4214 180.059 75.0591 193.537 74.8616 207.628C74.8012 211.956 78.263 215.518 82.5938 215.579C82.6309 215.579 82.6681 215.579 82.7053 215.579C86.9849 215.579 90.4839 212.14 90.5443 207.846C90.6884 197.614 94.5823 187.826 101.508 180.287C109.034 172.104 119.296 167.334 130.404 166.869C141.507 166.409 152.141 170.289 160.329 177.815C164.03 181.216 167.046 185.191 169.297 189.631C171.253 193.495 175.972 195.035 179.836 193.079C183.697 191.12 185.242 186.402 183.284 182.54C180.182 176.418 176.028 170.944 170.94 166.268Z" fill="black"/>
</g>
<defs>
<clipPath id="clip0_252_47">
<rect width="489" height="489" fill="white" transform="translate(-48 13)"/>
</clipPath>
</defs>
</svg>
