<svg width="402" height="485" viewBox="0 0 402 485" fill="none" xmlns="http://www.w3.org/2000/svg">
<path d="M80.7431 160.417C78.0524 164.234 76.4499 168.853 76.4499 173.872C76.4499 182.624 81.3025 190.168 88.415 194.197C90.101 204.272 96.798 212.632 105.89 216.608C104.824 218.316 104.159 220.334 104.159 222.504C104.159 228.618 109.125 233.585 115.255 233.585C117.144 233.585 118.906 233.071 120.47 232.224C124.159 236.654 129.102 239.972 134.749 241.688C136.223 253.215 145.966 262.165 157.893 262.165C161.937 262.165 165.671 261.046 168.981 259.254C173.07 261.378 177.719 262.588 182.64 262.588C189.571 262.588 195.929 260.215 200.992 256.238C206.057 260.206 212.421 262.588 219.345 262.588C224.265 262.588 228.914 261.379 233.003 259.254C236.314 261.038 240.063 262.165 244.085 262.165C256.013 262.165 265.763 253.216 267.237 241.688C272.891 239.972 277.827 236.654 281.516 232.224C283.095 233.063 284.842 233.585 286.731 233.585C292.869 233.585 297.827 228.619 297.827 222.504C297.827 220.334 297.177 218.308 296.096 216.608C305.189 212.64 311.909 204.272 313.586 194.197C320.691 190.168 325.544 182.624 325.544 173.872C325.544 168.853 323.941 164.234 321.258 160.417C324.569 158.489 326.829 154.952 326.829 150.848C326.829 144.718 321.87 139.752 315.74 139.752C315.491 139.752 315.265 139.821 315.023 139.828C313.602 128.551 304.251 119.782 292.687 119.367C290.722 116.253 287.275 114.167 283.323 114.167C281.562 114.167 279.906 114.621 278.433 115.361C274.192 111.197 268.41 108.619 262 108.619C251.199 108.619 242.19 115.966 239.476 125.906C238.735 125.831 238.025 125.68 237.261 125.68C234.162 125.68 231.222 126.315 228.531 127.403C224.714 124.72 220.095 123.126 215.084 123.126C209.778 123.126 204.933 124.955 201.01 127.925C197.079 124.955 192.242 123.126 186.928 123.126C181.931 123.126 177.298 124.72 173.496 127.403C170.79 126.315 167.858 125.68 164.758 125.68C164.002 125.68 163.292 125.838 162.559 125.906C159.83 115.967 150.836 108.619 140.027 108.619C133.624 108.619 127.842 111.197 123.595 115.361C122.121 114.613 120.465 114.167 118.705 114.167C114.743 114.167 111.304 116.253 109.332 119.367C97.7749 119.782 88.4179 128.55 86.9967 139.828C86.7626 139.821 86.5284 139.752 86.2866 139.752C80.1644 139.752 75.1985 144.718 75.1985 150.848C75.1717 154.952 77.4248 158.489 80.7431 160.417Z" fill="#1E4405"/>
<path d="M228.348 248.263C228.348 262.246 217.01 265.036 203.026 265.036C189.042 265.036 177.704 262.246 177.704 248.279C177.704 234.295 189.042 165.202 203.026 165.187C217.01 165.179 228.348 234.288 228.348 248.263Z" fill="#2A6602"/>
<path d="M262.158 443.563C262.158 477.327 234.773 484.04 200.993 484.04C167.214 484.04 139.829 477.32 139.829 443.563C139.829 409.784 167.214 242.843 200.993 242.843C234.773 242.843 262.158 409.784 262.158 443.563Z" fill="#51B224"/>
<path d="M200.993 242.843C234.773 242.843 262.158 409.783 262.158 443.563C262.158 477.327 234.773 484.039 200.993 484.039" fill="#3E9311"/>
<path d="M204.628 269.458C216.835 281.68 209.375 294.023 197.153 306.23C184.938 318.437 172.603 325.92 160.396 313.713C148.174 301.491 97.6894 231.204 109.896 218.988C122.119 206.767 192.406 257.251 204.628 269.458Z" fill="#51B224"/>
<path d="M109.897 218.997C122.119 206.775 192.406 257.259 204.628 269.466C216.835 281.688 209.376 294.031 197.153 306.238" fill="#3E9311"/>
<path d="M197.357 269.458C185.143 281.68 192.618 294.023 204.833 306.23C217.047 318.437 229.383 325.92 241.59 313.713C253.812 301.491 304.289 231.204 292.082 218.988C279.867 206.767 209.572 257.251 197.357 269.458Z" fill="#51B224"/>
<path d="M292.082 218.997C279.867 206.775 209.572 257.259 197.357 269.466C185.142 281.688 192.617 294.031 204.832 306.238" fill="#3E9311"/>
<path d="M393.081 163.516C397.374 157.423 399.936 150.046 399.936 142.011C399.936 128.028 392.188 115.98 380.835 109.54C378.137 93.4474 367.426 80.0918 352.891 73.7576C354.622 71.0285 355.657 67.8091 355.657 64.3392C355.657 54.5581 347.728 46.6289 337.947 46.6289C334.924 46.6289 332.112 47.4532 329.603 48.7986C323.715 41.7389 315.831 36.4102 306.79 33.6812C304.432 15.2608 288.861 0.982098 269.79 0.982098C263.358 0.982098 257.394 2.75063 252.111 5.60829C245.574 2.22957 238.166 0.287354 230.305 0.287354C219.239 0.287354 209.081 4.08926 200.992 10.4158C192.898 4.08926 182.747 0.287354 171.681 0.287354C163.82 0.287354 156.405 2.22957 149.866 5.60829C144.575 2.75159 138.611 0.982098 132.171 0.982098C113.116 0.982098 97.5454 15.2675 95.1791 33.6812C86.1541 36.4102 78.2557 41.7389 72.3667 48.7986C69.8574 47.4532 67.0534 46.6289 64.0221 46.6289C54.2333 46.6289 46.3042 54.5581 46.3042 64.3392C46.3042 67.8091 47.3472 71.0285 49.0783 73.7576C34.5434 80.0995 23.8324 93.4474 21.1341 109.54C9.79648 115.98 2.04873 128.028 2.04873 142.011C2.04873 150.038 4.61084 157.423 8.89638 163.516C3.60519 166.585 0 172.246 0 178.799C0 188.58 7.92911 196.51 17.7102 196.51C18.096 196.51 18.4664 196.412 18.8445 196.396C21.1197 214.423 36.048 228.415 54.5288 229.072C57.6734 234.054 63.1757 237.387 69.4869 237.387C72.3139 237.387 74.9518 236.669 77.3028 235.49C84.0756 242.134 93.327 246.254 103.554 246.254C120.811 246.254 135.203 234.523 139.549 218.643C140.728 218.756 141.877 219.005 143.086 219.005C148.022 219.005 152.708 217.992 157.031 216.262C163.116 220.54 170.501 223.095 178.513 223.095C186.994 223.095 194.726 220.178 201 215.423C207.274 220.178 214.999 223.095 223.487 223.095C231.492 223.095 238.884 220.541 244.969 216.262C249.277 217.993 253.97 219.005 258.922 219.005C260.117 219.005 261.281 218.756 262.452 218.643C266.791 234.531 281.19 246.254 298.447 246.254C308.673 246.254 317.918 242.134 324.69 235.49C327.056 236.669 329.687 237.387 332.514 237.387C338.841 237.387 344.329 234.061 347.472 229.072C365.938 228.415 380.881 214.424 383.149 196.396C383.535 196.412 383.905 196.51 384.29 196.51C394.071 196.51 402 188.58 402 178.799C401.985 172.246 398.379 166.585 393.081 163.516Z" fill="#2F7005"/>
<path d="M18.8454 124.181C21.1206 142.208 36.049 156.207 54.5298 156.857C57.6743 161.838 63.1766 165.172 69.4879 165.172C72.3148 165.172 74.9528 164.454 77.3038 163.275C84.0766 169.919 93.328 174.039 103.555 174.039C120.812 174.039 135.204 162.308 139.55 146.427C140.729 146.548 141.878 146.79 143.087 146.79C148.023 146.79 152.709 145.777 157.032 144.047C163.117 148.324 170.502 150.88 178.514 150.88C186.995 150.88 194.727 147.963 201.001 143.215C207.275 147.963 214.999 150.88 223.488 150.88C231.493 150.88 238.885 148.325 244.969 144.047C249.278 145.778 253.971 146.79 258.923 146.79C260.118 146.79 261.282 146.548 262.453 146.427C266.792 162.315 281.191 174.039 298.448 174.039C308.674 174.039 317.919 169.919 324.691 163.275C327.057 164.454 329.688 165.172 332.515 165.172C338.842 165.172 344.329 161.846 347.473 156.857C365.939 156.207 380.882 142.209 383.15 124.181C383.536 124.196 383.906 124.294 384.291 124.294C387.745 124.294 390.957 123.267 393.678 121.551C390.398 116.63 386.022 112.488 380.852 109.547C378.153 93.4549 367.442 80.0993 352.907 73.765C354.638 71.0359 355.674 67.8165 355.674 64.3466C355.674 54.5655 347.745 46.6364 337.964 46.6364C334.94 46.6364 332.128 47.4607 329.619 48.806C323.731 41.7463 315.847 36.4177 306.807 33.6886C304.448 15.2683 288.878 0.989531 269.807 0.989531C263.374 0.989531 257.411 2.75806 252.127 5.61572C245.574 2.22932 238.166 0.287109 230.305 0.287109C219.239 0.287109 209.081 4.08901 200.992 10.4156C192.898 4.08901 182.747 0.287109 171.681 0.287109C163.82 0.287109 156.405 2.22932 149.866 5.60805C144.575 2.75134 138.611 0.981854 132.171 0.981854C113.116 0.981854 97.5454 15.2673 95.179 33.6809C86.1541 36.41 78.2557 41.7386 72.3667 48.7983C69.8573 47.453 67.0534 46.6287 64.022 46.6287C54.2332 46.6287 46.3041 54.5578 46.3041 64.3389C46.3041 67.8088 47.3472 71.0283 49.0783 73.7573C34.5434 80.0993 23.8324 93.4472 21.134 109.54C15.9561 112.48 11.5803 116.622 8.30716 121.543C11.0209 123.267 14.2403 124.287 17.6948 124.287C18.0969 124.287 18.4673 124.195 18.8454 124.181Z" fill="#3A8708"/>
<path d="M169.33 49.2665C170.977 54.7161 160.932 54.6786 149.579 58.0727C138.226 61.4668 129.843 67.0142 128.204 61.5647C126.586 56.1151 134.47 48.9489 145.83 45.5558C157.176 42.1617 167.697 43.8247 169.33 49.2665Z" fill="#4A9B16"/>
<path d="M75.5353 88.8064C76.7069 92.6995 69.5714 92.6688 61.4917 95.0726C53.4119 97.4984 47.4327 101.444 46.284 97.5666C45.12 93.6812 50.7433 88.5867 58.824 86.1608C66.9028 83.7494 74.3857 84.9287 75.5353 88.8064Z" fill="#4A9B16"/>
<path d="M113.018 55.3062C114.847 58.9268 107.818 60.1589 100.289 63.9531C92.7533 67.7627 87.5754 72.6912 85.7464 69.0783C83.9174 65.4578 88.5503 59.4641 96.087 55.6546C103.615 51.8517 111.189 51.701 113.018 55.3062Z" fill="#4A9B16"/>
<path d="M188.604 27.0904C188.762 31.1418 181.854 29.3425 173.442 29.6755C165.013 30.0306 158.242 32.3662 158.082 28.3148C157.924 24.2711 164.628 20.7264 173.056 20.378C181.476 20.045 188.446 23.0457 188.604 27.0904Z" fill="#4A9B16"/>
<path d="M145.142 14.036C146.889 17.6939 139.829 18.7831 132.247 22.4189C124.628 26.0769 119.36 30.9152 117.599 27.2563C115.86 23.605 120.607 17.6949 128.196 14.036C135.807 10.4001 143.397 10.3924 145.142 14.036Z" fill="#4A9B16"/>
<path d="M113.736 47.9893C116.182 47.9893 118.165 46.0062 118.165 43.5599C118.165 41.1135 116.182 39.1304 113.736 39.1304C111.289 39.1304 109.306 41.1135 109.306 43.5599C109.306 46.0062 111.289 47.9893 113.736 47.9893Z" fill="#4A9B16"/>
<path d="M70.4628 67.7405C72.3416 67.7405 73.8646 66.2175 73.8646 64.3388C73.8646 62.46 72.3416 60.937 70.4628 60.937C68.5841 60.937 67.0611 62.46 67.0611 64.3388C67.0611 66.2175 68.5841 67.7405 70.4628 67.7405Z" fill="#4A9B16"/>
<path d="M52.413 122.245C55.6109 122.245 58.2032 119.653 58.2032 116.455C58.2032 113.257 55.6109 110.665 52.413 110.665C49.2152 110.665 46.6229 113.257 46.6229 116.455C46.6229 119.653 49.2152 122.245 52.413 122.245Z" fill="#4A9B16"/>
<path d="M108.967 88.1712C111.409 88.1712 113.388 86.1915 113.388 83.7494C113.388 81.3073 111.409 79.3276 108.967 79.3276C106.524 79.3276 104.545 81.3073 104.545 83.7494C104.545 86.1915 106.524 88.1712 108.967 88.1712Z" fill="#4A9B16"/>
<path d="M184.289 13.2425C185.42 13.2425 186.337 12.3252 186.337 11.1937C186.337 10.0623 185.42 9.14502 184.289 9.14502C183.157 9.14502 182.24 10.0623 182.24 11.1937C182.24 12.3252 183.157 13.2425 184.289 13.2425Z" fill="#4A9B16"/>
<path d="M144.379 36.4023C146.45 36.4023 148.128 34.7238 148.128 32.6532C148.128 30.5826 146.45 28.9041 144.379 28.9041C142.309 28.9041 140.63 30.5826 140.63 32.6532C140.63 34.7238 142.309 36.4023 144.379 36.4023Z" fill="#4A9B16"/>
<path d="M190.033 56.16C191.723 56.16 193.094 54.7895 193.094 53.0989C193.094 51.4083 191.723 50.0378 190.033 50.0378C188.342 50.0378 186.972 51.4083 186.972 53.0989C186.972 54.7895 188.342 56.16 190.033 56.16Z" fill="#4A9B16"/>
<path d="M232.656 49.2663C231.001 54.7158 241.053 54.6784 252.406 58.0725C263.759 61.4665 272.142 67.0139 273.774 61.5644C275.4 56.1149 267.516 48.9487 256.155 45.5555C244.81 42.1615 234.289 43.8244 232.656 49.2663Z" fill="#4A9B16"/>
<path d="M326.443 88.8064C325.287 92.6995 332.415 92.6688 340.495 95.0726C348.575 97.4984 354.546 101.444 355.696 97.5666C356.867 93.6812 351.243 88.5867 343.163 86.1608C335.083 83.7494 327.592 84.9287 326.443 88.8064Z" fill="#4A9B16"/>
<path d="M288.968 55.3062C287.131 58.9268 294.168 60.1589 301.697 63.9531C309.24 67.7627 314.411 72.6912 316.232 69.0783C318.069 65.4578 313.436 59.4641 305.899 55.6546C298.371 51.8517 290.79 51.701 288.968 55.3062Z" fill="#4A9B16"/>
<path d="M213.389 27.0904C213.216 31.1418 220.131 29.3425 228.544 29.6755C236.972 30.0306 243.745 32.3662 243.903 28.3148C244.062 24.2711 237.358 20.7264 228.93 20.378C220.509 20.045 213.54 23.0457 213.389 27.0904Z" fill="#4A9B16"/>
<path d="M256.859 14.036C255.106 17.6939 262.158 18.7831 269.739 22.4189C277.358 26.0769 282.618 30.9152 284.387 27.2563C286.14 23.605 281.386 17.6949 273.79 14.036C266.179 10.4001 258.582 10.3924 256.859 14.036Z" fill="#4A9B16"/>
<path d="M288.219 47.9896C290.666 47.9896 292.649 46.0064 292.649 43.5601C292.649 41.1138 290.666 39.1306 288.219 39.1306C285.773 39.1306 283.79 41.1138 283.79 43.5601C283.79 46.0064 285.773 47.9896 288.219 47.9896Z" fill="#4A9B16"/>
<path d="M328.13 64.3388C328.13 66.2206 329.634 67.7473 331.509 67.7473C333.406 67.7473 334.917 66.2206 334.917 64.3388C334.917 62.457 333.406 60.937 331.509 60.937C329.641 60.9303 328.13 62.457 328.13 64.3388Z" fill="#4A9B16"/>
<path d="M349.596 122.245C352.794 122.245 355.386 119.653 355.386 116.455C355.386 113.257 352.794 110.665 349.596 110.665C346.398 110.665 343.806 113.257 343.806 116.455C343.806 119.653 346.398 122.245 349.596 122.245Z" fill="#4A9B16"/>
<path d="M293.019 88.1715C295.461 88.1715 297.441 86.1918 297.441 83.7497C297.441 81.3076 295.461 79.3279 293.019 79.3279C290.577 79.3279 288.598 81.3076 288.598 83.7497C288.598 86.1918 290.577 88.1715 293.019 88.1715Z" fill="#4A9B16"/>
<path d="M217.728 13.2425C218.859 13.2425 219.776 12.3252 219.776 11.1937C219.776 10.0623 218.859 9.14502 217.728 9.14502C216.596 9.14502 215.679 10.0623 215.679 11.1937C215.679 12.3252 216.596 13.2425 217.728 13.2425Z" fill="#4A9B16"/>
<path d="M257.6 36.4021C259.67 36.4021 261.349 34.7235 261.349 32.6529C261.349 30.5823 259.67 28.9038 257.6 28.9038C255.529 28.9038 253.85 30.5823 253.85 32.6529C253.85 34.7235 255.529 36.4021 257.6 36.4021Z" fill="#4A9B16"/>
<path d="M211.945 56.1603C213.636 56.1603 215.006 54.7898 215.006 53.0992C215.006 51.4086 213.636 50.0381 211.945 50.0381C210.255 50.0381 208.884 51.4086 208.884 53.0992C208.884 54.7898 210.255 56.1603 211.945 56.1603Z" fill="#4A9B16"/>
<path d="M200.993 315.316C205.493 315.316 209.141 311.668 209.141 307.168C209.141 302.668 205.493 299.02 200.993 299.02C196.493 299.02 192.845 302.668 192.845 307.168C192.845 311.668 196.493 315.316 200.993 315.316Z" fill="#3E9311"/>
</svg>
