<svg width="373" height="370" viewBox="0 0 373 370" fill="none" xmlns="http://www.w3.org/2000/svg">
<path d="M196.161 81.6492C192.511 83.5159 189.04 85.7164 185.794 88.2226C182.532 90.7507 180.034 94.1353 178.579 98C176.56 93.803 175.462 89.2394 174.116 84.7823C171.538 76.6955 168.494 68.765 165 61.0305C170.753 58.8314 175.74 54.9976 179.347 50C186.431 57.0345 193.646 64.3645 197.153 73.6453C197.755 75.2532 199.515 76.9674 199.928 78.3743C200.483 80.467 197.696 80.798 196.161 81.6492Z" fill="#FFBFC5"/>
<path d="M0 311.271C0 364.371 38.2761 370 85.5059 370C132.736 370 171 364.371 171 311.271C171 258.171 132.724 238 85.5059 238C38.288 238 0 258.183 0 311.271Z" fill="#6C63FF"/>
<path d="M263.36 255.414C271.234 257.718 278.576 261.362 285.011 266.16C285.494 266.44 285.844 266.881 285.988 267.392C286.157 268.511 284.492 269.015 283.285 269.339C279.664 270.291 277.456 273.392 274.837 275.81C272.218 278.227 268.018 280.142 264.965 278.205C264.163 277.635 263.462 276.951 262.889 276.179L250 260.597C254.37 258.327 258.965 256.453 263.722 255" fill="#F1F1F1"/>
<path d="M286.64 258.135C288.311 259.865 288.993 262.365 290.664 264.143C291.76 265.215 293.015 266.103 294.382 266.774L304.008 272.181C305.501 273.085 307.077 273.838 308.714 274.428C310.525 274.956 312.369 275.357 314.233 275.63C316.903 276.157 319.514 276.962 322.023 278.033C323.905 278.826 326.012 280.184 326 282.263C325.918 283.284 325.504 284.249 324.823 285.002C321.034 289.881 314.315 291.01 308.244 291.623C295.112 293.041 281.674 294.098 268.836 290.938C266.328 290.467 263.958 289.419 261.906 287.874C258.034 284.594 257.199 278.622 258.705 273.707C259.114 271.819 260.207 270.158 261.764 269.057C263.8 267.856 266.33 268.421 268.672 268.24C271.137 267.885 273.525 267.101 275.732 265.921C277.203 265.248 278.885 264.371 279.262 262.593C279.638 260.815 277.65 259.277 278.085 257.787C278.909 254.434 285.11 256.537 286.64 258.135Z" fill="#C0C0C0"/>
<path d="M309.485 310.85L313.662 313.583C314.938 314.259 315.989 315.288 316.686 316.544C317.597 318.651 316.37 321.035 315.01 322.889C310.929 328.423 305.357 332.704 298.933 335.24C296.706 336.159 294.352 336.74 291.95 336.962C291.405 337.051 290.844 336.984 290.336 336.769C289.06 336.095 289.243 334.301 289.23 332.868C289.23 328.739 286.037 325.381 283.159 322.335C280.281 319.289 277.44 315.557 278.095 311.5C278.696 309.089 279.957 306.889 281.738 305.144C283.302 303.187 285.143 301.464 287.203 300.027C290.153 298.113 291.185 299.148 293.954 300.894C299.159 304.177 304.336 307.495 309.485 310.85Z" fill="#F1F1F1"/>
<path d="M295.464 330.645C296.576 330.925 297.738 330.94 298.856 330.689C299.975 330.438 301.018 329.928 301.901 329.2C303.66 327.731 305.084 325.905 306.078 323.844C307.077 322.02 307.944 320.127 308.671 318.18C309.528 315.893 310.314 313.368 312.336 311.982C314.716 310.299 318.214 310.963 320.665 312.586C323.116 314.21 324.973 316.615 327.079 318.701C332.04 323.63 338.573 326.747 345.283 328.785C351.994 330.823 358.955 331.842 365.844 333.158C367.226 333.342 368.564 333.771 369.794 334.425C372.579 336.12 373.519 339.9 372.733 343.052C371.948 346.204 369.89 348.811 367.641 351.181C365.767 353.392 363.443 355.181 360.823 356.43C358.612 357.233 356.286 357.673 353.934 357.734C342.521 358.501 331.057 357.607 319.904 355.08C315.81 353.966 311.643 353.138 307.434 352.603C304.876 352.378 302.282 352.449 299.724 352.271C294.613 351.921 289.615 350.61 284.993 348.408C283.87 347.995 282.924 347.208 282.316 346.18C281.98 345.238 281.91 344.221 282.114 343.242L283.815 328.382C283.97 327.09 284.398 325.479 285.695 325.277C286.992 325.076 287.813 326.344 288.587 327.316C290.088 329.102 292.142 330.342 294.427 330.839C296.712 331.337 299.098 331.065 301.211 330.065" fill="#C0C0C0"/>
<path d="M196.798 142.437C204.335 141.59 213.083 141.446 218.188 147.042C221.316 150.479 222.262 155.288 223.341 159.786C225.032 167.355 227.783 174.649 231.513 181.455C233.91 185.679 236.822 189.628 238.704 194.115C240.585 198.601 241.292 203.66 242.394 208.541C246.81 227.68 257.596 244.77 273 257.033C270.28 264.395 262.407 268.607 254.749 270.492C252.902 271.102 250.916 271.164 249.033 270.671C247.607 270.057 246.341 269.126 245.33 267.951C241.752 264.1 238.419 260.031 235.348 255.768C224.311 241.092 213.119 226.117 207.103 208.803C204.994 202.718 202.885 195.678 196.953 193.089C193.574 191.633 189.703 192.086 186.072 192.707C177.959 194.073 169.974 196.112 162.202 198.804C153.909 201.68 144.418 205.212 136.833 200.821C132.291 198.184 129.643 193.136 128.6 188.005C127.558 182.875 128.085 177.577 128.6 172.374C128.651 170.03 129.215 167.725 130.254 165.621C131.304 164.046 132.651 162.688 134.22 161.624C140.997 156.513 148.533 152.487 156.557 149.691C164.215 146.995 172.459 146.112 180.452 144.763C185.877 143.825 191.325 143.049 196.798 142.437Z" fill="#2C5F66"/>
<path d="M239.705 196.036C243.24 197.835 246.485 200.169 249.332 202.959C252.401 206.291 254.266 210.591 255.855 214.879C256.478 216.341 256.861 217.897 256.986 219.486C257.044 220.279 256.923 221.075 256.633 221.814C256.344 222.553 255.892 223.215 255.313 223.749C253.915 224.683 252.25 225.114 250.584 224.974C248.394 224.974 246.192 224.974 244.001 224.803C242.667 224.792 241.346 224.535 240.103 224.043C238.964 223.451 237.937 222.659 237.07 221.703C233.21 218.054 230.048 213.71 227.744 208.888C226.155 205.323 223.532 197.09 226.035 193.378C228.538 189.666 236.986 194.456 239.705 196.036Z" fill="#FFBFC5"/>
<path d="M134.455 196C145.509 199.545 157.275 199.923 168.827 200.999C188.258 202.809 207.453 206.586 226.114 212.273C229.937 213.454 233.843 214.731 236.919 217.272C239.418 219.571 241.534 222.252 243.187 225.213C246.223 229.815 248.971 234.598 251.415 239.536C253.517 244.003 255.12 248.683 257.067 253.209C263.627 268.37 274.001 281.593 287.189 291.604C289.563 293.435 292.282 295.421 292.899 298.363C293.18 300.262 292.869 302.2 292.009 303.918C289.159 310.524 283.247 315.333 277.037 319.009C274.378 320.592 271.433 322.187 270.127 325C260.7 321.124 253.683 312.852 247.854 304.532C242.024 296.213 236.835 287.243 229.355 280.342C226.067 277.293 222.327 274.646 219.727 270.982C215.773 265.404 214.704 257.77 209.385 253.469C204.066 249.167 196.325 249.722 189.45 250.396C154.229 253.814 118.739 253.418 83.6032 249.214C76.3013 248.352 68.7977 247.241 62.4694 243.495C56.1411 239.748 51.2138 232.752 52.1043 225.485C52.9473 218.678 58.6344 213.289 64.9864 210.63C71.3385 207.971 78.3435 207.487 85.1704 206.718C102.161 204.851 118.379 201.779 134.455 196Z" fill="#2C5F66"/>
<path d="M33.4534 210.094C34.3244 204.313 36.5796 198.84 37.9995 193.165C38.7083 189.594 39.6084 186.063 40.696 182.586C40.696 182.48 40.7796 182.385 40.8154 182.29C41.1754 182.261 41.5245 182.154 41.838 181.976C42.1515 181.798 42.4215 181.553 42.629 181.259C42.8247 180.754 42.8784 180.205 42.7841 179.672C42.7422 179.108 42.7422 178.542 42.7841 177.978C45.1099 174.109 47.6514 170.371 50.3966 166.783C55.1694 160.018 59.3694 152.828 63.5217 145.648C66.9342 139.725 70.3467 133.873 73.1627 127.689C75.2865 123.057 77.0644 118.212 79.403 113.734C87.7553 97.6221 102.694 85.74 118.778 77.2104C134.218 69.0244 150.911 63.5157 167.138 57C167.551 57.4116 167.93 57.8553 168.272 58.3268C177.041 70.2327 177.984 85.8703 181.599 100.181C183.055 105.962 185 111.72 185 117.667C185 126.457 180.764 134.631 176.552 142.367C172.603 149.653 168.534 156.938 163.296 163.371C160.814 166.427 158.082 169.294 155.588 172.315C145.35 184.766 139.444 200.084 133.693 215.117C130.376 223.824 124.935 231.537 121.284 240.114C119.876 243.407 119.065 246.949 117.299 250.077C115.533 253.204 112.466 255.929 108.863 256C107.808 255.968 106.762 255.804 105.749 255.514C92.707 252.185 81.7894 243.668 70.9553 235.683C69.0104 234.261 67.0655 232.864 64.9893 231.584C62.9132 230.305 60.8132 229.132 58.6893 228.03L53.845 225.388C48.5711 222.521 43.2733 219.643 37.7727 217.214C36.1124 216.57 34.5149 215.777 33 214.845C33.0161 213.251 33.1677 211.662 33.4534 210.094Z" fill="#E5E5E5"/>
<path d="M203 81C219.569 81 233 67.5685 233 51C233 34.4314 219.569 21 203 21C186.431 21 173 34.4314 173 51C173 67.5685 186.431 81 203 81Z" fill="#FFCACF"/>
<path d="M223.97 37.476C224.704 38.7461 225.808 39.7611 227.134 40.3846C228.461 41.0081 229.946 41.2102 231.391 40.964C232.829 40.675 234.19 40.0845 235.384 39.2313C236.579 38.3782 237.579 37.2816 238.32 36.0136C239.787 33.4685 240.662 30.6253 240.882 27.695C241.133 25.4056 241.097 22.9004 239.625 21.1144C238.506 20.018 237.217 19.1112 235.807 18.4295C233.856 17.2311 232.216 15.5883 231.019 13.6349C230.182 12.2325 229.571 10.7102 228.817 9.27178C226.076 4.05766 220.738 -0.185528 214.862 0.00625551C212.037 0.102147 209.344 1.20491 206.555 1.66039C197.208 3.30254 187.058 -1.64788 178.381 2.21176C176.251 3.25093 174.27 4.57339 172.493 6.14333C170.051 8.16504 167.705 10.2907 165.455 12.5201C163.501 14.1863 162.023 16.341 161.17 18.7651C159.973 23.2001 162.786 28.1505 161.003 32.3697C160.397 33.5787 159.672 34.7233 158.836 35.7859C156.873 38.6746 159.004 49.9539 158.836 53.4419C158.593 55.1354 159.023 56.857 160.033 58.2365C161.457 59.8307 163.839 59.9626 166.018 59.9866H169.931C170.516 60.0297 171.103 59.9688 171.667 59.8068C172.436 59.4687 173.113 58.9508 173.642 58.2965C176.897 54.8564 177.591 43.625 182.319 43.673C183.04 43.6248 183.757 43.8097 184.366 44.2004C185.215 44.8237 185.467 45.9864 186.077 46.8494C186.77 47.6709 187.709 48.2473 188.754 48.4934C189.799 48.7395 190.896 48.6422 191.882 48.2159C193.833 47.3083 195.531 45.9333 196.825 44.2124C198.111 42.4933 199.672 40.9988 201.445 39.7894C203.97 38.315 206.819 37.6798 209.272 36.0136C211.319 34.6232 212.48 32.6094 214.323 31.0752C216.166 29.5409 217.722 29.7567 219.685 30.7755C222.522 32.3457 222.641 34.839 223.97 37.476Z" fill="#2F2E41"/>
<path opacity="0.1" d="M154.229 90.4752C161.214 89.4831 168.333 90.0488 175.071 92.1313C177.32 92.6476 179.352 93.8511 180.881 95.5735C181.756 96.8734 182.325 98.3534 182.544 99.9029C183.918 107.028 183.034 114.403 180.014 121.006C179.801 121.335 179.66 121.706 179.601 122.093C179.542 122.48 179.565 122.876 179.669 123.253C179.976 123.727 180.381 124.13 180.857 124.436C181.276 124.84 181.605 125.327 181.821 125.865C182.038 126.404 182.138 126.982 182.114 127.562C182.09 128.141 181.944 128.709 181.684 129.229C181.425 129.748 181.058 130.207 180.608 130.575C180.049 130.978 179.312 131.333 179.206 132.007C179.099 132.681 179.788 133.332 180.334 133.852C181.131 134.629 181.719 135.593 182.043 136.656C182.367 137.719 182.417 138.845 182.188 139.932C181.893 140.804 181.69 141.704 181.582 142.617C181.7 143.739 182.035 144.828 182.568 145.823C183.476 148.072 183.783 150.518 183.459 152.92C183.171 154.055 183.143 155.239 183.376 156.386C183.71 157.144 184.159 157.846 184.707 158.468C186.858 161.354 187.321 166.181 184.208 167.931C185.542 168.615 186.628 169.696 187.316 171.023C188.004 172.35 188.259 173.858 188.046 175.336C189.911 174.355 192.169 175.62 193.725 177.04C195.282 178.459 196.862 180.21 198.966 180.316C200.439 180.387 201.995 179.63 203.326 180.234C205.37 181.144 205.299 184.445 207.307 185.427C209.065 186.302 211.525 184.882 213.022 186.148C213.545 186.586 213.806 187.26 214.317 187.721C215.446 188.762 217.228 188.325 218.773 188.254C222.421 188.112 225.783 190.619 227.673 193.671C229.562 196.723 230.239 200.449 230.726 204.045C231.128 206.021 231.087 208.061 230.608 210.019C230.355 210.992 229.821 211.87 229.071 212.543C228.321 213.217 227.388 213.655 226.389 213.804C208.032 214.987 189.911 210.599 172.029 206.269C166.777 204.992 161.442 203.501 157.057 200.355C153.077 197.48 150.154 193.435 147.302 189.46C142.038 182.114 136.739 174.721 132.972 166.524C128.124 155.984 125.962 144.439 123.847 133.024C123.117 129.966 122.857 126.815 123.074 123.679C123.715 120.013 125.123 116.523 127.209 113.435C129.725 109.346 132.504 105.422 135.527 101.689C140.125 96.0466 147.005 91.5043 154.229 90.4752Z" fill="black"/>
<path d="M155.162 89.4744C162.153 88.4816 169.277 89.0514 176.019 91.1423C178.27 91.6494 180.303 92.8498 181.83 94.5728C182.7 95.8753 183.268 97.3541 183.493 98.9022C184.862 106.028 183.978 113.401 180.962 120.005C180.75 120.335 180.609 120.705 180.55 121.092C180.49 121.48 180.513 121.875 180.618 122.253C180.925 122.727 181.33 123.13 181.806 123.436C182.225 123.839 182.553 124.326 182.77 124.865C182.987 125.403 183.087 125.981 183.063 126.561C183.039 127.141 182.893 127.709 182.633 128.228C182.374 128.748 182.007 129.207 181.556 129.575C180.998 129.977 180.261 130.332 180.154 131.006C180.047 131.681 180.736 132.331 181.342 132.852C182.14 133.629 182.727 134.593 183.051 135.656C183.375 136.718 183.425 137.845 183.196 138.932C182.902 139.804 182.699 140.703 182.59 141.617C182.705 142.738 183.035 143.827 183.565 144.823C184.482 147.07 184.793 149.516 184.468 151.92C184.101 152.864 184.023 153.895 184.245 154.883C184.467 155.87 184.979 156.77 185.716 157.468C187.867 160.354 188.33 165.18 185.217 167.002C186.551 167.682 187.638 168.761 188.326 170.086C189.015 171.412 189.269 172.918 189.055 174.395C190.921 173.413 193.179 174.679 194.736 176.099C196.292 177.518 197.873 179.269 199.976 179.375C201.45 179.446 202.995 178.689 204.338 179.293C206.382 180.215 206.31 183.504 208.319 184.497C210.078 185.361 212.537 183.941 214.035 185.207C214.558 185.645 214.819 186.319 215.33 186.78C216.459 187.821 218.242 187.384 219.787 187.313C223.435 187.171 226.798 189.678 228.688 192.73C230.408 195.944 231.447 199.475 231.742 203.104C232.122 205.062 232.082 207.078 231.623 209.019C231.37 209.992 230.836 210.87 230.086 211.543C229.336 212.217 228.403 212.655 227.404 212.804C209.044 213.987 190.921 209.599 173.036 205.269C167.783 203.992 162.435 202.501 158.062 199.355C154.081 196.492 151.158 192.435 148.306 188.46C143.041 181.126 137.741 173.733 133.974 165.535C129.125 154.984 126.962 143.439 124.847 132.035C124.117 128.973 123.857 125.818 124.074 122.679C124.681 119.017 126.053 115.523 128.103 112.423C130.613 108.333 133.392 104.413 136.422 100.688C141.068 95.0222 147.949 90.4917 155.162 89.4744Z" fill="#2C5F66"/>
</svg>
