<svg width="423" height="484" viewBox="0 0 423 484" fill="none" xmlns="http://www.w3.org/2000/svg">
<path d="M306.131 9C296.131 39 142.523 41.2755 188.131 95C306.131 234 34.5766 122.624 88.1715 190C158.172 278 -1.20209 232.333 4.13125 255" stroke="#10C923" stroke-width="8"/>
<path d="M410.48 137.92L386.378 92.6382C380.431 81.7872 376.779 69.1624 376.153 57.4767H378.135C382.413 57.4767 385.96 53.9293 385.96 49.6514V10.7338C385.96 6.87332 383.248 3.63888 379.492 3.01286C356.12 -0.951947 328.053 -1.05628 300.508 3.01286C296.648 3.53454 293.831 6.87332 293.831 10.7338V49.6514C293.831 53.9293 297.378 57.4767 301.656 57.4767H303.639C302.908 69.1624 299.256 81.7872 293.309 92.7426L269.312 138.025C260.86 152.215 257 167.448 257 186.02V284.618C257 285.244 257.104 285.87 257.209 286.496L271.398 344.821C273.694 355.567 272.859 367.044 268.79 378C268.79 378.104 268.686 378.208 268.686 378.313L263.156 396.154C258.461 407.631 256.896 419.421 258.565 431.003C258.565 431.316 258.669 431.629 258.774 432.046C260.547 438.619 261.173 441.854 261.8 445.193C262.113 446.862 262.426 448.531 262.843 450.618C263.782 458.548 267.747 465.643 274.216 470.442C281.728 476.076 291.744 478.267 301.761 476.494C301.865 476.494 301.969 476.494 302.074 476.389L309.273 474.72C316.472 480.772 325.445 483.067 331.497 483.067H348.503C356.955 483.067 362.38 479.415 367.18 476.181C368.014 475.659 368.849 475.033 369.684 474.511L377.926 476.389C378.031 476.389 378.135 476.389 378.239 476.494C388.256 478.372 398.272 476.076 405.784 470.442C412.253 465.643 416.218 458.548 417.157 450.618C417.574 448.531 417.887 446.758 418.201 445.193C418.827 441.854 419.348 438.619 421.226 432.046C421.331 431.733 421.435 431.42 421.435 431.003C423 419.421 421.435 407.631 416.844 396.154L411.314 378.313C411.314 378.208 411.21 378.104 411.21 378C407.245 367.044 406.306 355.567 408.601 344.821L422.791 286.496C422.896 285.87 423 285.244 423 284.618V186.02C422.791 167.343 418.827 152.11 410.48 137.92ZM309.377 17.62C330.662 15.1159 351.842 15.0116 370.31 17.5157V41.9305H309.377V17.62ZM282.771 145.746C282.876 145.641 282.876 145.537 282.98 145.433L307.082 100.15C314.281 87.1084 318.559 71.7709 319.289 57.4767H360.502C361.233 71.6665 365.51 87.0041 372.605 100.046L396.707 145.433C396.811 145.537 396.811 145.641 396.916 145.746C401.924 154.197 404.95 162.857 406.306 172.873H273.381C274.737 162.857 277.763 154.197 282.771 145.746ZM405.889 428.29C404.011 435.176 403.385 438.828 402.759 442.271C402.446 443.941 402.133 445.61 401.715 447.592C401.611 447.905 401.611 448.218 401.611 448.531C401.089 453.331 398.481 456.357 396.29 457.922C392.325 460.843 386.691 462.095 381.161 461.052L369.997 458.548C368.119 458.13 366.136 458.443 364.467 459.278C362.172 460.53 360.085 461.991 358.311 463.139C354.138 465.956 351.947 467.416 348.399 467.416H331.392C327.323 467.416 321.272 465.434 317.411 461.052C315.533 458.861 312.612 457.922 309.794 458.548L298.63 461.052C293.101 461.991 287.466 460.843 283.502 457.922C281.31 456.357 278.702 453.331 278.18 448.531C278.18 448.218 278.076 447.905 278.076 447.592C277.659 445.61 277.346 443.941 277.033 442.271C276.407 438.828 275.781 435.176 273.903 428.29C272.755 419.421 274.007 410.657 277.659 401.684C277.763 401.475 277.867 401.267 277.867 401.058L283.502 383.112C288.51 369.34 289.553 354.941 286.527 341.273C286.527 341.169 286.527 341.169 286.527 341.064L274.737 292.339H405.054L393.264 341.064C393.264 341.169 393.264 341.169 393.264 341.273C390.343 354.837 391.386 369.34 396.29 383.112L401.924 401.058C402.028 401.267 402.028 401.475 402.133 401.684C405.784 410.657 407.036 419.421 405.889 428.29ZM407.141 276.689H272.546V188.524H407.141V276.689Z" fill="#F4A442"/>
</svg>
