<?xml version="1.0" encoding="utf-8"?>
<!-- Generator: Adobe Illustrator 24.2.3, SVG Export Plug-In . SVG Version: 6.00 Build 0)  -->
<svg version="1.1" id="Layer_1" xmlns="http://www.w3.org/2000/svg" xmlns:xlink="http://www.w3.org/1999/xlink" x="0px" y="0px"
	 viewBox="0 0 200.1 200.2" style="enable-background:new 0 0 200.1 200.2;" xml:space="preserve">
<style type="text/css">
	.st0{fill:#336666;}
	.st1{fill:#00FF1A;}
</style>
<path id="full-outline" class="st0" d="M100.4,0C45.3,0,0.6,44.6,0.5,99.7c0,55.1,44.6,99.8,99.7,99.9h0.1l0,0c0.6,0,1.3,0,1.9,0
	c55.1-1.1,98.9-46.6,97.9-101.7C199.2,43.6,154.8,0,100.4,0L100.4,0z M120.8,189.4c-49.5,11.2-98.6-19.8-109.9-69.2
	C-0.3,70.7,30.7,21.5,80.1,10.3C86.8,8.8,93.6,8,100.4,8h0.1c50.7,0,91.8,41.1,91.8,91.8C192.3,142.7,162.6,179.9,120.8,189.4z"/>
<path class="st1" d="M177.4,99.6L170.2,78c-0.5-1.7-2.1-2.8-3.8-2.8h-0.1c-1.8,0-3.3,1.2-3.8,2.9l-11.2,39.2l-13.2-79.4
	c-0.4-2.2-2.5-3.7-4.7-3.3c-1.6,0.3-2.9,1.4-3.3,3l-13.4,62h-8.1h-6.9h-2.9L91.6,78c-0.5-1.7-2.1-2.8-3.8-2.8h-0.1
	c-1.8,0-3.3,1.2-3.8,2.9l-11.2,39.3L59.4,38.1c-0.4-2.2-2.5-3.7-4.7-3.3c-1.6,0.3-2.9,1.4-3.3,3L38.1,99.6h-15c-0.3,0-0.6,0-0.8,0.1
	v-0.1H8.5l0,8.2h13.9v-0.1c0.2,0,0.4,0.1,0.7,0.1h18.2c1.9,0,3.5-1.3,3.9-3.1l9.5-46.1l13,77.8c0.3,1.9,1.9,3.3,3.8,3.4h0.2
	c1.8,0,3.4-1.2,3.9-2.9L88.2,93l4,12c0.6,1.7,2.1,2.8,3.8,2.8h5.8H120c1.9,0,3.5-1.3,3.9-3.1l9.4-46l13,77.8
	c0.3,1.9,1.9,3.3,3.8,3.4h0.2c1.8,0,3.4-1.2,3.9-2.9l12.6-43.9l4,12c0.6,1.7,2.1,2.8,3.8,2.8h17.6c0-2.8,0-5.5,0-8.3H177.4z"/>
</svg>
