<?xml version="1.0" encoding="utf-8"?>
<!-- Generator: Adobe Illustrator 24.2.3, SVG Export Plug-In . SVG Version: 6.00 Build 0)  -->
<svg version="1.1" id="Layer_1" xmlns="http://www.w3.org/2000/svg" xmlns:xlink="http://www.w3.org/1999/xlink" x="0px" y="0px"
	 viewBox="0 0 429 500" style="enable-background:new 0 0 429 500;" xml:space="preserve">
<style type="text/css">
	.st0{fill:none;}
</style>
<path id="around" class="st0" d="M176.7,233.9c0,0-41.7,8.2-39.6-46.9c1.9-48.1,51.6-45.1,51.6-45.1s6.7-5.5,30.7,12
	c28.1,20.5,7,46.4-2.7,62.3C194.4,237,176.7,233.9,176.7,233.9z"/>
<path id="search" d="M344.1,395.7c-16.1-33.9-38.1-65-63.1-92.9c-14.6-14.8-31.1-27.5-48.3-39.1c29.9-27.5,48.6-70.5,37.6-110.8
	c-9.1-32.2-42.7-55.1-75.6-42.6c-10.6,4.1-20.5,9.7-30.3,15.3c14.6-4.1,29.3-9.9,44.7-9.1c6.8,0.6,13.3,3,18.9,7
	c3.4,1.8,9.3,7,12.7,11.6c13.9,23.5,12.3,37.9,2.1,67.2c-14.4,31.6-53.4,66.8-85.3,56.8c-7.2-1.7-28-21.1-30.9-36.8
	c-11.2-41.6,5.9-85.7,60-96.6c-59.1-1.2-91.7,49.4-82.2,104.7c5.2,25.5,23.8,49.8,49.2,57.7c7.3,1.9,14.9,2.4,22.4,1.6
	c2.7-0.5,5.7-0.8,4.5-0.6c0.2,0,0.3,0,0.5-0.1c17.9-1.1,33.8-10.1,47.4-21.4c12.1,14.9,24.5,29.5,36.7,44.2
	c16,20.7,33.4,40.3,52.1,58.6c9.5,10,19,20,28.9,29.6C345.4,398.6,344.8,397.2,344.1,395.7z"/>
</svg>
